<svg xmlns="http://www.w3.org/2000/svg" width="14.772" height="14.772" viewBox="-11.827 204.778 14.772 14.772"><g data-name="worldwide"><path d="M-4.241 204.978a7.382 7.382 0 0 0-7.386 7.385 7.382 7.382 0 0 0 7.386 7.386 7.382 7.382 0 0 0 7.386-7.386 7.382 7.382 0 0 0-7.386-7.385Zm5.978 5.616c-.955-.497-2.214-.783-3.276-.933-.15-1.062-.436-2.321-.933-3.276a6.25 6.25 0 0 1 4.209 4.209Zm-5.978-4.462c.771 0 1.364 2.458 1.517 3.402a20.649 20.649 0 0 0-3.034 0c.14-.873.736-3.402 1.517-3.402Zm-6.232 6.231c0-.771 2.458-1.364 3.403-1.516a20.649 20.649 0 0 0 0 3.033c-.873-.14-3.403-.736-3.403-1.517Zm.254 1.77c.954.496 2.214.783 3.275.933.15 1.061.437 2.32.934 3.275a6.25 6.25 0 0 1-4.21-4.208Zm3.275-4.472c-1.061.15-2.32.436-3.275.933a6.25 6.25 0 0 1 4.209-4.208c-.497.954-.784 2.214-.934 3.275Zm2.703 8.934c-.772 0-1.365-2.458-1.517-3.402a20.65 20.65 0 0 0 3.034 0c-.14.873-.737 3.402-1.517 3.402Zm1.66-4.571a19.505 19.505 0 0 1-3.32 0 19.505 19.505 0 0 1 0-3.32 19.505 19.505 0 0 1 3.32 0 19.505 19.505 0 0 1 0 3.32Zm.11 4.317c.496-.954.782-2.214.932-3.275 1.062-.15 2.321-.437 3.276-.933a6.25 6.25 0 0 1-4.209 4.208Zm1.06-4.46a20.65 20.65 0 0 0 0-3.034c.872.14 3.402.736 3.402 1.516 0 .772-2.458 1.365-3.403 1.517Zm0 0" fill-rule="evenodd"/><path d="M-4.241 204.978a7.382 7.382 0 0 0-7.386 7.385 7.382 7.382 0 0 0 7.386 7.386 7.382 7.382 0 0 0 7.386-7.386 7.382 7.382 0 0 0-7.386-7.385Zm5.978 5.616c-.955-.497-2.214-.783-3.276-.933-.15-1.062-.436-2.321-.933-3.276a6.25 6.25 0 0 1 4.209 4.209Zm-5.978-4.462c.771 0 1.364 2.458 1.517 3.402a20.649 20.649 0 0 0-3.034 0c.14-.873.736-3.402 1.517-3.402Zm-6.232 6.231c0-.771 2.458-1.364 3.403-1.516a20.649 20.649 0 0 0 0 3.033c-.873-.14-3.403-.736-3.403-1.517Zm.254 1.77c.954.496 2.214.783 3.275.933.15 1.061.437 2.32.934 3.275a6.25 6.25 0 0 1-4.21-4.208Zm3.275-4.472c-1.061.15-2.32.436-3.275.933a6.25 6.25 0 0 1 4.209-4.208c-.497.954-.784 2.214-.934 3.275Zm2.703 8.934c-.772 0-1.365-2.458-1.517-3.402a20.65 20.65 0 0 0 3.034 0c-.14.873-.737 3.402-1.517 3.402Zm1.66-4.571a19.505 19.505 0 0 1-3.32 0 19.505 19.505 0 0 1 0-3.32 19.505 19.505 0 0 1 3.32 0 19.505 19.505 0 0 1 0 3.32Zm.11 4.317c.496-.954.782-2.214.932-3.275 1.062-.15 2.321-.437 3.276-.933a6.25 6.25 0 0 1-4.209 4.208Zm1.06-4.46a20.65 20.65 0 0 0 0-3.034c.872.14 3.402.736 3.402 1.516 0 .772-2.458 1.365-3.403 1.517Zm0 0" stroke-linejoin="round" stroke-linecap="round" stroke-width=".4" stroke="#fff" fill="transparent"/></g></svg>