<svg xmlns="http://www.w3.org/2000/svg" width="79.58" height="76.719" viewBox="25 26.31 79.58 76.719"><g data-name="Group 6"><g data-name="Group 1"><path d="m88.97 30.499-4.564 2.262v3.378l-19.412 9.623-13.652-6.934v13.703l-5.77 2.858V26.31h2.878v4.29l16.548 8.573 19.408-9.21 3.48-1.652L88.97 30.5Z" fill="#fff" fill-rule="evenodd" data-name="Path 1"/><path d="m41 64.219 4.565-2.262v-3.38l19.411-9.622 13.652 6.934V42.187l5.77-2.858v29.078H81.52v-4.29l-16.547-8.573-19.408 9.21-3.482 1.652L41 64.22Z" fill="#fff" fill-rule="evenodd" data-name="Path 2"/></g><g data-name="Group 2"><path d="m37.502 77.066-4.799 6.423-4.799-6.423H25v10.927h2.953v-6.217l4.75 6.063 4.75-6.063v6.217h2.954V77.066h-2.905Z" fill="#fff" fill-rule="evenodd" data-name="Path 3"/><path d="m85.1 77.066-4.798 6.423-4.8-6.423h-2.904v10.927h2.953v-6.217l4.75 6.063 4.75-6.063v6.217h2.954V77.066h-2.904Z" fill="#fff" fill-rule="evenodd" data-name="Path 4"/><path d="M54.815 79.453v-2.387H42.382v10.927h12.433v-2.387h-9.529V83.62h7.806v-2.197h-7.806v-1.969h9.529Z" fill="#fff" fill-rule="evenodd" data-name="Path 5"/><path d="M65.715 83.508h-3.912l1.956-3.525 1.956 3.525Zm-.4-6.449h-3.11l-6.093 10.928h3.206l1.215-2.19h6.453l1.216 2.19h3.205l-6.093-10.928Z" fill="#fff" fill-rule="evenodd" data-name="Path 6"/><path d="M98.889 83.508h-3.913l1.956-3.525 1.957 3.525Zm-.401-6.449h-3.11l-6.092 10.928h3.205l1.216-2.19h6.452l1.216 2.19h3.205l-6.092-10.928Z" fill="#fff" fill-rule="evenodd" data-name="Path 7"/></g><g data-name="Group 5"><g data-name="Group 4"><g data-name="Group 3"><path d="M58.288 103.03c-1.777 0-3.082-1.306-3.082-3.194s1.305-3.207 3.082-3.207c1.791 0 3.11 1.32 3.11 3.207 0 1.888-1.319 3.193-3.11 3.193Zm0-.89c1.236 0 1.93-.957 1.93-2.304 0-1.36-.694-2.304-1.93-2.304-1.221 0-1.902.944-1.902 2.304 0 1.347.68 2.305 1.902 2.305Z" fill="#fff" fill-rule="evenodd" data-name="Path 8"/><path d="M63.746 94.116v8.747h-1.152v-8.747h1.152Z" fill="#fff" fill-rule="evenodd" data-name="Path 9"/><path d="M66.468 94.116v8.747h-1.152v-8.747h1.152Z" fill="#fff" fill-rule="evenodd" data-name="Path 10"/><path d="M73.604 100.822c-.305 1.375-1.318 2.207-2.832 2.207-1.804 0-3.124-1.221-3.124-3.11 0-1.915 1.32-3.29 3.069-3.29 1.93 0 2.915 1.375 2.915 3.027v.458h-4.831c.056 1.18.902 2.013 1.985 2.013 1.013 0 1.61-.486 1.86-1.416l.958.111Zm-1.152-1.458c-.041-.972-.583-1.86-1.735-1.86-1.097 0-1.75.86-1.888 1.86h3.623Z" fill="#fff" fill-rule="evenodd" data-name="Path 11"/><path d="M77.549 96.63c1.777 0 2.735 1.193 2.86 2.65l-1.014.07c-.097-1.068-.735-1.79-1.86-1.79-1.139 0-1.915.874-1.915 2.276 0 1.403.776 2.277 1.915 2.277 1.125 0 1.763-.764 1.86-1.832l1.014.097c-.125 1.471-1.083 2.651-2.86 2.651-1.833 0-3.11-1.263-3.11-3.193 0-1.93 1.277-3.207 3.11-3.207Z" fill="#fff" fill-rule="evenodd" data-name="Path 12"/><path d="M81.799 97.63h-.916v-.626l.388-.07c.57-.11.695-.388.833-.971l.18-.847h.653v1.68h1.708v.833h-1.708v3.68c0 .54.222.79.75.79.388 0 .791-.166 1.138-.36v.777c-.444.333-.888.513-1.554.513-.861 0-1.472-.402-1.472-1.582v-3.818Z" fill="#fff" fill-rule="evenodd" data-name="Path 13"/><path d="M50.29 102.002c-1.777 0-3.054-1.36-3.054-3.512s1.277-3.513 3.054-3.513c1.715 0 2.706 1.096 2.884 2.588l1.158-.09c-.257-2.1-1.645-3.525-4.042-3.525-2.415 0-4.29 1.847-4.29 4.54s1.875 4.54 4.29 4.54c2.384 0 3.77-1.412 4.037-3.495l-1.157-.089c-.189 1.475-1.177 2.556-2.88 2.556Z" fill="#fff" fill-rule="evenodd" data-name="Path 14"/></g></g></g></g></svg>