<svg xmlns="http://www.w3.org/2000/svg" width="433.3" height="297.035" viewBox="-60 5.466 433.3 297.035"><g data-name="201201-Meama-Open_Pattern_File"><g data-name="Group 11366"><path d="M29.337 38a16.1 16.1 0 0 1 4.73-11.42 16.1 16.1 0 0 1 11.421-4.73c4.46 0 8.498 1.81 11.421 4.73A16.1 16.1 0 0 1 61.64 38H29.337Z" fill="#5c0bc5" fill-rule="evenodd" data-name="Path 11861"/><path d="M29.337 5.695h32.306a16.1 16.1 0 0 1-4.73 11.421 16.1 16.1 0 0 1-11.421 4.73c-4.46 0-8.497-1.81-11.421-4.73a16.087 16.087 0 0 1-4.734-11.421" fill="#5c0bc5" fill-rule="evenodd" data-name="Path 11862"/></g><g data-name="Group 11367"><path d="M150.503 5.94v15.917c0 4.397-1.784 8.379-4.663 11.258a15.876 15.876 0 0 1-11.259 4.663h-15.918V21.857c0-4.397 1.78-8.375 4.664-11.255a15.868 15.868 0 0 1 11.258-4.663h15.918Z" fill="#90712e" fill-rule="evenodd" data-name="Path 11863"/></g><path d="M-15.27 21.905V5.691h32.424v16.214c0 4.475-1.814 8.53-4.749 11.462A16.16 16.16 0 0 1 .94 38.115a16.16 16.16 0 0 1-11.466-4.748 16.158 16.158 0 0 1-4.744-11.462" fill="#a0d39f" fill-rule="evenodd" data-name="Path 11864"/><g data-name="Group 11368"><path d="M90.03 37.997a15.902 15.902 0 0 1-11.255-4.641 15.765 15.765 0 0 1-4.664-11.203 15.75 15.75 0 0 1 4.664-11.203 15.895 15.895 0 0 1 11.254-4.64v31.687Z" fill="#f14c01" fill-rule="evenodd" data-name="Path 11865"/><path d="M105.958 6.465v31.684a15.9 15.9 0 0 1-11.254-4.641 15.765 15.765 0 0 1-4.664-11.203 15.75 15.75 0 0 1 4.664-11.203 15.906 15.906 0 0 1 11.254-4.637" fill="#f14c01" fill-rule="evenodd" data-name="Path 11866"/></g><path d="M-32.013 17.109a16.446 16.446 0 0 0 4.8-11.644H-60v16.318c0 4.548 1.836 8.664 4.8 11.643 2.968 2.98 7.065 4.826 11.592 4.826 4.526 0 8.626-1.843 11.59-4.826a16.446 16.446 0 0 0 4.801-11.643h-14.208a16.31 16.31 0 0 0 9.412-4.674Z" fill="#024853" fill-rule="evenodd" data-name="Path 11867"/><path d="M190.725 17.109a16.446 16.446 0 0 0 4.8-11.644h-32.787v16.318c0 4.548 1.836 8.664 4.8 11.643 2.969 2.98 7.065 4.826 11.592 4.826 4.526 0 8.627-1.843 11.591-4.826a16.447 16.447 0 0 0 4.8-11.643h-14.208a16.299 16.299 0 0 0 9.412-4.674Z" fill="#ff7bff" fill-rule="evenodd" data-name="Path 11868"/><g data-name="Group 11369"><path d="M29.337 43.445a16.1 16.1 0 0 1 11.421 4.73 16.1 16.1 0 0 1 4.73 11.42c0 4.46-1.81 8.498-4.73 11.422a16.1 16.1 0 0 1-11.42 4.73V43.445Z" fill="#f14c01" fill-rule="evenodd" data-name="Path 11869"/><path d="M61.643 43.445V75.75a16.1 16.1 0 0 1-11.421-4.73 16.1 16.1 0 0 1-4.73-11.42c0-4.46 1.81-8.498 4.73-11.422a16.074 16.074 0 0 1 11.42-4.733" fill="#f14c01" fill-rule="evenodd" data-name="Path 11870"/></g><g data-name="Group 11370"><path d="M118.663 43.689h15.918c4.397 0 8.38 1.784 11.259 4.663a15.876 15.876 0 0 1 4.663 11.258v15.918H134.58c-4.396 0-8.375-1.78-11.254-4.663a15.867 15.867 0 0 1-4.664-11.258V43.689Z" fill="#ff7bff" fill-rule="evenodd" data-name="Path 11871"/></g><path d="M.94 43.445h16.214v32.424H.94c-4.474 0-8.53-1.814-11.462-4.749a16.16 16.16 0 0 1-4.748-11.465 16.16 16.16 0 0 1 4.748-11.466A16.165 16.165 0 0 1 .94 43.445" fill="#5c0bc5" fill-rule="evenodd" data-name="Path 11872"/><g data-name="Group 11371"><path d="M105.803 59.988a15.9 15.9 0 0 1-4.641 11.255 15.765 15.765 0 0 1-11.203 4.663 15.75 15.75 0 0 1-11.203-4.663 15.895 15.895 0 0 1-4.64-11.255h31.687Z" fill="#90712e" fill-rule="evenodd" data-name="Path 11873"/><path d="M74.27 44.059h31.684c0 4.397-1.772 8.372-4.64 11.255a15.765 15.765 0 0 1-11.203 4.663 15.75 15.75 0 0 1-11.203-4.663 15.907 15.907 0 0 1-4.638-11.255" fill="#90712e" fill-rule="evenodd" data-name="Path 11874"/></g><path d="M-38.856 71.202a16.446 16.446 0 0 0 11.643 4.8V43.215h-16.318a16.455 16.455 0 0 0-11.643 4.8C-58.154 50.983-60 55.08-60 59.607c0 4.526 1.843 8.627 4.826 11.591a16.446 16.446 0 0 0 11.643 4.8V61.79a16.31 16.31 0 0 0 4.675 9.412Z" fill="#a0d39f" fill-rule="evenodd" data-name="Path 11875"/><g data-name="Group 11372"><path d="M29.337 113.5a16.1 16.1 0 0 1 4.73-11.421 16.1 16.1 0 0 1 11.421-4.73c4.46 0 8.498 1.81 11.421 4.73a16.1 16.1 0 0 1 4.73 11.42H29.337Z" fill="#90712e" fill-rule="evenodd" data-name="Path 11876"/><path d="M29.337 81.194h32.306a16.1 16.1 0 0 1-4.73 11.421 16.1 16.1 0 0 1-11.421 4.73c-4.46 0-8.497-1.81-11.421-4.73a16.087 16.087 0 0 1-4.734-11.42" fill="#90712e" fill-rule="evenodd" data-name="Path 11877"/></g><g data-name="Group 11373"><path d="M150.503 81.439v15.917c0 4.397-1.784 8.38-4.663 11.259a15.876 15.876 0 0 1-11.259 4.663h-15.918V97.356c0-4.396 1.78-8.375 4.664-11.254a15.867 15.867 0 0 1 11.258-4.663h15.918Z" fill="#024853" fill-rule="evenodd" data-name="Path 11878"/></g><path d="M17.154 97.405v16.213H-15.27V97.405c0-4.475 1.813-8.531 4.748-11.462A16.161 16.161 0 0 1 .944 81.194a16.16 16.16 0 0 1 11.465 4.749 16.18 16.18 0 0 1 4.745 11.462" fill="#f14c01" fill-rule="evenodd" data-name="Path 11879"/><g data-name="Group 11374"><path d="M90.04 81.964c4.397 0 8.372 1.773 11.255 4.641a15.766 15.766 0 0 1 4.663 11.203 15.75 15.75 0 0 1-4.663 11.203 15.895 15.895 0 0 1-11.255 4.64V81.965Z" fill="#ff7bff" fill-rule="evenodd" data-name="Path 11880"/><path d="M74.115 113.496V81.812c4.397 0 8.372 1.773 11.255 4.641a15.765 15.765 0 0 1 4.663 11.203 15.75 15.75 0 0 1-4.663 11.203 15.907 15.907 0 0 1-11.255 4.637" fill="#ff7bff" fill-rule="evenodd" data-name="Path 11881"/></g><path d="M-55.2 102.108a16.446 16.446 0 0 0-4.8 11.644h32.787V97.434c0-4.548-1.836-8.664-4.8-11.643-2.969-2.98-7.066-4.826-11.592-4.826a16.292 16.292 0 0 0-11.591 4.826 16.446 16.446 0 0 0-4.8 11.643h14.208a16.299 16.299 0 0 0-9.412 4.674Z" fill="#5c0bc5" fill-rule="evenodd" data-name="Path 11882"/><g data-name="Group 11375"><path d="M29.337 118.944a16.1 16.1 0 0 1 11.421 4.73 16.1 16.1 0 0 1 4.73 11.421c0 4.46-1.81 8.497-4.73 11.421a16.1 16.1 0 0 1-11.42 4.73v-32.302Z" fill="#ff7bff" fill-rule="evenodd" data-name="Path 11883"/><path d="M61.643 118.944v32.306a16.1 16.1 0 0 1-11.421-4.73 16.1 16.1 0 0 1-4.73-11.421c0-4.46 1.81-8.498 4.73-11.421a16.074 16.074 0 0 1 11.42-4.734" fill="#ff7bff" fill-rule="evenodd" data-name="Path 11884"/></g><g data-name="Group 11376"><path d="M118.663 119.188h15.918c4.397 0 8.38 1.784 11.259 4.664a15.876 15.876 0 0 1 4.663 11.258v15.918H134.58c-4.396 0-8.375-1.78-11.254-4.664a15.867 15.867 0 0 1-4.664-11.258v-15.918Z" fill="#a0d39f" fill-rule="evenodd" data-name="Path 11885"/></g><path d="M.94 151.368h-16.21v-32.424H.94c4.474 0 8.53 1.814 11.462 4.748a16.16 16.16 0 0 1 4.748 11.466 16.16 16.16 0 0 1-4.748 11.465A16.173 16.173 0 0 1 .94 151.368" fill="#90712e" fill-rule="evenodd" data-name="Path 11886"/><g data-name="Group 11377"><path d="M74.27 135.476a15.9 15.9 0 0 1 4.641-11.254 15.765 15.765 0 0 1 11.203-4.664 15.75 15.75 0 0 1 11.203 4.664 15.894 15.894 0 0 1 4.64 11.254H74.27Z" fill="#024853" fill-rule="evenodd" data-name="Path 11887"/><path d="M105.803 151.401H74.119c0-4.396 1.773-8.371 4.64-11.254a15.765 15.765 0 0 1 11.204-4.663 15.75 15.75 0 0 1 11.202 4.663 15.907 15.907 0 0 1 4.638 11.254" fill="#024853" fill-rule="evenodd" data-name="Path 11888"/></g><path d="M-48.357 123.515a16.446 16.446 0 0 0-11.643-4.8V151.5H-43.682c4.548 0 8.663-1.835 11.643-4.8 2.979-2.968 4.826-7.065 4.826-11.591 0-4.527-1.843-8.627-4.826-11.592a16.446 16.446 0 0 0-11.643-4.8v14.208a16.32 16.32 0 0 0-4.675-9.411Z" fill="#f14c01" fill-rule="evenodd" data-name="Path 11889"/><g data-name="Group 11378"><path d="M29.337 189a16.1 16.1 0 0 1 4.73-11.422 16.1 16.1 0 0 1 11.421-4.73c4.46 0 8.498 1.81 11.421 4.73A16.1 16.1 0 0 1 61.64 189H29.337Z" fill="#024853" fill-rule="evenodd" data-name="Path 11890"/><path d="M29.337 156.694h32.306a16.1 16.1 0 0 1-4.73 11.42 16.1 16.1 0 0 1-11.421 4.73c-4.46 0-8.497-1.81-11.421-4.73a16.087 16.087 0 0 1-4.734-11.42" fill="#024853" fill-rule="evenodd" data-name="Path 11891"/></g><g data-name="Group 11379"><path d="M150.503 156.938v15.918c0 4.397-1.784 8.379-4.663 11.258a15.876 15.876 0 0 1-11.259 4.663h-15.918v-15.921c0-4.397 1.78-8.376 4.664-11.255a15.868 15.868 0 0 1 11.258-4.663h15.918Z" fill="#5c0bc5" fill-rule="evenodd" data-name="Path 11892"/></g><path d="M-15.27 172.904V156.69h32.424v16.214c0 4.474-1.814 8.53-4.749 11.462A16.16 16.16 0 0 1 .94 189.114a16.16 16.16 0 0 1-11.466-4.748 16.158 16.158 0 0 1-4.744-11.462" fill="#ff7bff" fill-rule="evenodd" data-name="Path 11893"/><g data-name="Group 11380"><path d="M90.03 188.996a15.901 15.901 0 0 1-11.255-4.641 15.765 15.765 0 0 1-4.664-11.203 15.75 15.75 0 0 1 4.664-11.203 15.895 15.895 0 0 1 11.254-4.64v31.687Z" fill="#a0d39f" fill-rule="evenodd" data-name="Path 11894"/><path d="M105.958 157.463v31.684a15.901 15.901 0 0 1-11.254-4.64 15.765 15.765 0 0 1-4.664-11.203 15.75 15.75 0 0 1 4.664-11.203 15.906 15.906 0 0 1 11.254-4.638" fill="#a0d39f" fill-rule="evenodd" data-name="Path 11895"/></g><path d="M-32.013 168.107a16.446 16.446 0 0 0 4.8-11.643H-60v16.318c0 4.548 1.836 8.664 4.8 11.643 2.968 2.98 7.065 4.826 11.592 4.826 4.526 0 8.626-1.843 11.59-4.826a16.447 16.447 0 0 0 4.801-11.643h-14.208a16.31 16.31 0 0 0 9.412-4.675Z" fill="#90712e" fill-rule="evenodd" data-name="Path 11896"/><g data-name="Group 11381"><path d="M29.337 194.443a16.1 16.1 0 0 1 11.421 4.73 16.1 16.1 0 0 1 4.73 11.421c0 4.46-1.81 8.498-4.73 11.422a16.1 16.1 0 0 1-11.42 4.73v-32.303Z" fill="#a0d39f" fill-rule="evenodd" data-name="Path 11897"/><path d="M61.643 194.443v32.306c-4.46 0-8.497-1.806-11.421-4.73a16.1 16.1 0 0 1-4.73-11.42c0-4.46 1.81-8.498 4.73-11.422a16.075 16.075 0 0 1 11.42-4.734" fill="#a0d39f" fill-rule="evenodd" data-name="Path 11898"/></g><g data-name="Group 11382"><path d="M118.663 194.688h15.918c4.397 0 8.38 1.784 11.259 4.663a15.875 15.875 0 0 1 4.663 11.258v15.918H134.58c-4.396 0-8.375-1.78-11.254-4.663a15.867 15.867 0 0 1-4.664-11.259v-15.917Z" fill="#f14c01" fill-rule="evenodd" data-name="Path 11899"/></g><path d="M.94 194.443h16.214v32.424H.94c-4.474 0-8.53-1.813-11.462-4.748a16.16 16.16 0 0 1-4.748-11.465 16.16 16.16 0 0 1 4.748-11.466A16.164 16.164 0 0 1 .94 194.443" fill="#024853" fill-rule="evenodd" data-name="Path 11900"/><g data-name="Group 11383"><path d="M105.803 210.987a15.9 15.9 0 0 1-4.641 11.254 15.765 15.765 0 0 1-11.203 4.664 15.75 15.75 0 0 1-11.203-4.664 15.895 15.895 0 0 1-4.64-11.254h31.687Z" fill="#5c0bc5" fill-rule="evenodd" data-name="Path 11901"/><path d="M74.27 195.058h31.684a15.9 15.9 0 0 1-4.64 11.254 15.765 15.765 0 0 1-11.203 4.663 15.75 15.75 0 0 1-11.203-4.663 15.907 15.907 0 0 1-4.638-11.254" fill="#5c0bc5" fill-rule="evenodd" data-name="Path 11902"/></g><path d="M-38.856 222.2a16.447 16.447 0 0 0 11.643 4.8v-32.786h-16.318a16.455 16.455 0 0 0-11.643 4.8c-2.98 2.968-4.826 7.065-4.826 11.591 0 4.527 1.843 8.627 4.826 11.592a16.446 16.446 0 0 0 11.643 4.8v-14.208a16.31 16.31 0 0 0 4.675 9.412Z" fill="#ff7bff" fill-rule="evenodd" data-name="Path 11903"/><g data-name="Group 11384"><path d="M29.337 264.499a16.1 16.1 0 0 1 4.73-11.421 16.1 16.1 0 0 1 11.421-4.73c4.46 0 8.498 1.81 11.421 4.73a16.1 16.1 0 0 1 4.73 11.42H29.337Z" fill="#5c0bc5" fill-rule="evenodd" data-name="Path 11904"/><path d="M29.337 232.193h32.306a16.1 16.1 0 0 1-4.73 11.421 16.1 16.1 0 0 1-11.421 4.73c-4.46 0-8.497-1.81-11.421-4.73a16.087 16.087 0 0 1-4.734-11.42" fill="#5c0bc5" fill-rule="evenodd" data-name="Path 11905"/></g><g data-name="Group 11385"><path d="M150.503 232.437v15.918c0 4.397-1.784 8.38-4.663 11.259a15.876 15.876 0 0 1-11.259 4.663h-15.918v-15.922c0-4.396 1.78-8.375 4.664-11.254a15.867 15.867 0 0 1 11.258-4.664h15.918Z" fill="#90712e" fill-rule="evenodd" data-name="Path 11906"/></g><path d="M17.154 248.403v16.214H-15.27v-16.214c0-4.474 1.813-8.53 4.748-11.462a16.161 16.161 0 0 1 11.466-4.748 16.16 16.16 0 0 1 11.465 4.748 16.18 16.18 0 0 1 4.745 11.462" fill="#a0d39f" fill-rule="evenodd" data-name="Path 11907"/><g data-name="Group 11386"><path d="M90.04 232.963c4.397 0 8.372 1.773 11.255 4.64a15.765 15.765 0 0 1 4.663 11.204 15.75 15.75 0 0 1-4.663 11.202 15.895 15.895 0 0 1-11.255 4.641v-31.687Z" fill="#f14c01" fill-rule="evenodd" data-name="Path 11908"/><path d="M74.115 264.495v-31.684c4.397 0 8.372 1.773 11.255 4.641a15.765 15.765 0 0 1 4.663 11.203 15.75 15.75 0 0 1-4.663 11.203 15.907 15.907 0 0 1-11.255 4.637" fill="#f14c01" fill-rule="evenodd" data-name="Path 11909"/></g><path d="M-55.2 253.107A16.446 16.446 0 0 0-60 264.75h32.787v-16.317c0-4.549-1.836-8.664-4.8-11.643-2.969-2.98-7.066-4.826-11.592-4.826a16.292 16.292 0 0 0-11.591 4.826 16.447 16.447 0 0 0-4.8 11.643h14.208a16.299 16.299 0 0 0-9.412 4.674Z" fill="#024853" fill-rule="evenodd" data-name="Path 11910"/><g data-name="Group 11387"><path d="M29.337 269.943a16.1 16.1 0 0 1 11.421 4.73 16.1 16.1 0 0 1 4.73 11.421c0 4.46-1.81 8.497-4.73 11.42a16.099 16.099 0 0 1-11.42 4.73v-32.301Z" fill="#f14c01" fill-rule="evenodd" data-name="Path 11911"/><path d="M61.643 269.943v32.306a16.1 16.1 0 0 1-11.421-4.73 16.1 16.1 0 0 1-4.73-11.421c0-4.46 1.81-8.498 4.73-11.421a16.074 16.074 0 0 1 11.42-4.734" fill="#f14c01" fill-rule="evenodd" data-name="Path 11912"/></g><g data-name="Group 11388"><path d="M118.663 270.187h15.918c4.397 0 8.38 1.784 11.259 4.663a15.875 15.875 0 0 1 4.663 11.259v15.917H134.58c-4.396 0-8.375-1.78-11.254-4.663a15.867 15.867 0 0 1-4.664-11.258v-15.918Z" fill="#ff7bff" fill-rule="evenodd" data-name="Path 11913"/></g><path d="M.94 302.367h-16.21v-32.424H.94c4.474 0 8.53 1.813 11.462 4.748a16.16 16.16 0 0 1 4.748 11.466 16.16 16.16 0 0 1-4.748 11.465A16.173 16.173 0 0 1 .94 302.367" fill="#5c0bc5" fill-rule="evenodd" data-name="Path 11914"/><g data-name="Group 11389"><path d="M74.27 286.479c0-4.397 1.77-8.376 4.638-11.255a15.77 15.77 0 0 1 11.203-4.667c4.374 0 8.334 1.78 11.202 4.66a15.91 15.91 0 0 1 4.645 11.25l-31.687.012Z" fill="#90712e" fill-rule="evenodd" data-name="Path 11915"/><path d="m105.806 302.396-31.683.012c0-4.397 1.769-8.376 4.637-11.255a15.777 15.777 0 0 1 11.203-4.667c4.374 0 8.334 1.78 11.202 4.66a15.895 15.895 0 0 1 4.641 11.25" fill="#90712e" fill-rule="evenodd" data-name="Path 11916"/></g><path d="M-48.357 274.514a16.447 16.447 0 0 0-11.643-4.8V302.5H-43.682c4.548 0 8.663-1.836 11.643-4.8 2.979-2.968 4.826-7.065 4.826-11.591 0-4.526-1.843-8.627-4.826-11.592a16.447 16.447 0 0 0-11.643-4.8v14.208a16.32 16.32 0 0 0-4.675-9.411Z" fill="#a0d39f" fill-rule="evenodd" data-name="Path 11917"/><g data-name="Group 11390"><path d="M252.135 38c0-4.46 1.805-8.497 4.73-11.42a16.1 16.1 0 0 1 11.42-4.73c4.46 0 8.498 1.81 11.422 4.73a16.1 16.1 0 0 1 4.73 11.42h-32.302Z" fill="#a0d39f" fill-rule="evenodd" data-name="Path 11918"/><path d="M252.135 5.695h32.305a16.1 16.1 0 0 1-4.73 11.421 16.099 16.099 0 0 1-11.42 4.73c-4.46 0-8.498-1.81-11.422-4.73a16.087 16.087 0 0 1-4.733-11.421" fill="#a0d39f" fill-rule="evenodd" data-name="Path 11919"/></g><g data-name="Group 11391"><path d="M373.3 5.94v15.917c0 4.397-1.784 8.379-4.663 11.258a15.876 15.876 0 0 1-11.258 4.663H341.46V21.857c0-4.397 1.78-8.375 4.663-11.255a15.867 15.867 0 0 1 11.258-4.663H373.3Z" fill="#f14c01" fill-rule="evenodd" data-name="Path 11920"/></g><path d="M207.527 21.905V5.691h32.424v16.214c0 4.475-1.813 8.53-4.748 11.462a16.161 16.161 0 0 1-11.466 4.748 16.16 16.16 0 0 1-11.465-4.748 16.158 16.158 0 0 1-4.745-11.462" fill="#024853" fill-rule="evenodd" data-name="Path 11921"/><g data-name="Group 11392"><path d="M312.826 37.997a15.9 15.9 0 0 1-11.254-4.641 15.764 15.764 0 0 1-4.663-11.203c0-4.374 1.78-8.334 4.663-11.203a15.894 15.894 0 0 1 11.254-4.64v31.687Z" fill="#5c0bc5" fill-rule="evenodd" data-name="Path 11922"/><path d="M328.755 6.465v31.684a15.9 15.9 0 0 1-11.254-4.641 15.765 15.765 0 0 1-4.663-11.203 15.75 15.75 0 0 1 4.663-11.203 15.907 15.907 0 0 1 11.254-4.637" fill="#5c0bc5" fill-rule="evenodd" data-name="Path 11923"/></g><g data-name="Group 11393"><path d="M252.135 43.445a16.1 16.1 0 0 1 11.42 4.73 16.1 16.1 0 0 1 4.73 11.42c0 4.46-1.81 8.498-4.73 11.422a16.1 16.1 0 0 1-11.42 4.73V43.445Z" fill="#5c0bc5" fill-rule="evenodd" data-name="Path 11924"/><path d="M284.44 43.445V75.75a16.1 16.1 0 0 1-11.42-4.73 16.1 16.1 0 0 1-4.73-11.42c0-4.46 1.809-8.498 4.73-11.422a16.074 16.074 0 0 1 11.42-4.733" fill="#5c0bc5" fill-rule="evenodd" data-name="Path 11925"/></g><g data-name="Group 11394"><path d="M341.46 43.689h15.919c4.396 0 8.378 1.784 11.258 4.663A15.876 15.876 0 0 1 373.3 59.61v15.918h-15.921c-4.397 0-8.376-1.78-11.255-4.663a15.867 15.867 0 0 1-4.663-11.258V43.689Z" fill="#90712e" fill-rule="evenodd" data-name="Path 11926"/></g><path d="M223.737 43.445h16.214v32.424h-16.214c-4.474 0-8.53-1.814-11.462-4.749a16.16 16.16 0 0 1-4.748-11.465 16.16 16.16 0 0 1 4.748-11.466 16.164 16.164 0 0 1 11.462-4.744" fill="#a0d39f" fill-rule="evenodd" data-name="Path 11927"/><g data-name="Group 11395"><path d="M328.6 59.988a15.9 15.9 0 0 1-4.641 11.255 15.764 15.764 0 0 1-11.203 4.663 15.75 15.75 0 0 1-11.203-4.663 15.895 15.895 0 0 1-4.64-11.255H328.6Z" fill="#f14c01" fill-rule="evenodd" data-name="Path 11928"/><path d="M297.068 44.059h31.684a15.9 15.9 0 0 1-4.642 11.255 15.764 15.764 0 0 1-11.202 4.663 15.75 15.75 0 0 1-11.203-4.663 15.907 15.907 0 0 1-4.637-11.255" fill="#f14c01" fill-rule="evenodd" data-name="Path 11929"/></g><path d="M183.94 71.202a16.447 16.447 0 0 0 11.644 4.8V43.215H179.266a16.455 16.455 0 0 0-11.643 4.8c-2.979 2.968-4.826 7.065-4.826 11.592 0 4.526 1.844 8.627 4.826 11.591a16.446 16.446 0 0 0 11.643 4.8V61.79a16.31 16.31 0 0 0 4.675 9.412Z" fill="#024853" fill-rule="evenodd" data-name="Path 11930"/><g data-name="Group 11396"><path d="M252.135 113.5c0-4.46 1.805-8.497 4.73-11.421a16.1 16.1 0 0 1 11.42-4.73c4.46 0 8.498 1.81 11.422 4.73a16.1 16.1 0 0 1 4.73 11.42h-32.302Z" fill="#f14c01" fill-rule="evenodd" data-name="Path 11931"/><path d="M252.135 81.194h32.305a16.1 16.1 0 0 1-4.73 11.421 16.099 16.099 0 0 1-11.42 4.73c-4.46 0-8.498-1.81-11.422-4.73a16.087 16.087 0 0 1-4.733-11.42" fill="#f14c01" fill-rule="evenodd" data-name="Path 11932"/></g><path d="M239.95 97.405v16.213h-32.423V97.405c0-4.475 1.813-8.531 4.748-11.462a16.161 16.161 0 0 1 11.465-4.749c4.479 0 8.531 1.814 11.466 4.749a16.18 16.18 0 0 1 4.745 11.462" fill="#5c0bc5" fill-rule="evenodd" data-name="Path 11934"/><g data-name="Group 11398"><path d="M312.837 81.964a15.9 15.9 0 0 1 11.255 4.641 15.765 15.765 0 0 1 4.663 11.203 15.75 15.75 0 0 1-4.663 11.203 15.894 15.894 0 0 1-11.255 4.64V81.965Z" fill="#90712e" fill-rule="evenodd" data-name="Path 11935"/><path d="M296.912 113.496V81.812c4.397 0 8.372 1.773 11.255 4.641a15.765 15.765 0 0 1 4.663 11.203 15.75 15.75 0 0 1-4.663 11.203 15.907 15.907 0 0 1-11.255 4.637" fill="#90712e" fill-rule="evenodd" data-name="Path 11936"/></g><path d="M167.597 102.108a16.446 16.446 0 0 0-4.8 11.644h32.787V97.434c0-4.548-1.836-8.664-4.8-11.643-2.968-2.98-7.065-4.826-11.592-4.826a16.291 16.291 0 0 0-11.59 4.826 16.445 16.445 0 0 0-4.801 11.643h14.208a16.298 16.298 0 0 0-9.412 4.674Z" fill="#a0d39f" fill-rule="evenodd" data-name="Path 11937"/><g data-name="Group 11399"><path d="M252.135 118.944a16.1 16.1 0 0 1 11.42 4.73 16.1 16.1 0 0 1 4.73 11.421c0 4.46-1.81 8.497-4.73 11.421a16.1 16.1 0 0 1-11.42 4.73v-32.302Z" fill="#90712e" fill-rule="evenodd" data-name="Path 11938"/><path d="M284.44 118.944v32.306c-4.46 0-8.497-1.806-11.42-4.73a16.1 16.1 0 0 1-4.73-11.421c0-4.46 1.809-8.498 4.73-11.421a16.074 16.074 0 0 1 11.42-4.734" fill="#90712e" fill-rule="evenodd" data-name="Path 11939"/></g><g data-name="Group 11400"><path d="M341.46 119.188h15.919c4.396 0 8.378 1.784 11.258 4.664a15.876 15.876 0 0 1 4.663 11.258v15.918h-15.921c-4.397 0-8.376-1.78-11.255-4.664a15.867 15.867 0 0 1-4.663-11.258v-15.918Z" fill="#024853" fill-rule="evenodd" data-name="Path 11940"/></g><path d="M223.737 151.368h-16.214v-32.424h16.214c4.474 0 8.53 1.814 11.462 4.748a16.16 16.16 0 0 1 4.748 11.466c0 4.478-1.813 8.53-4.748 11.465a16.174 16.174 0 0 1-11.462 4.745" fill="#f14c01" fill-rule="evenodd" data-name="Path 11941"/><g data-name="Group 11401"><path d="M297.068 135.476a15.9 15.9 0 0 1 4.64-11.254 15.765 15.765 0 0 1 11.203-4.664 15.75 15.75 0 0 1 11.203 4.664 15.894 15.894 0 0 1 4.641 11.254h-31.687Z" fill="#ff7bff" fill-rule="evenodd" data-name="Path 11942"/><path d="M328.6 151.401h-31.684c0-4.396 1.773-8.371 4.641-11.254a15.766 15.766 0 0 1 11.203-4.663 15.75 15.75 0 0 1 11.203 4.663A15.908 15.908 0 0 1 328.6 151.4" fill="#ff7bff" fill-rule="evenodd" data-name="Path 11943"/></g><path d="M174.44 123.515a16.446 16.446 0 0 0-11.643-4.8V151.5h16.318c4.548 0 8.664-1.835 11.643-4.8 2.98-2.968 4.826-7.065 4.826-11.591 0-4.527-1.843-8.627-4.826-11.592a16.446 16.446 0 0 0-11.643-4.8v14.208a16.321 16.321 0 0 0-4.674-9.411Z" fill="#5c0bc5" fill-rule="evenodd" data-name="Path 11944"/><g data-name="Group 11402"><path d="M252.135 189c0-4.46 1.805-8.498 4.73-11.422a16.1 16.1 0 0 1 11.42-4.73c4.46 0 8.498 1.81 11.422 4.73a16.1 16.1 0 0 1 4.73 11.421h-32.302Z" fill="#ff7bff" fill-rule="evenodd" data-name="Path 11945"/><path d="M252.135 156.694h32.305a16.1 16.1 0 0 1-4.73 11.42 16.099 16.099 0 0 1-11.42 4.73c-4.46 0-8.498-1.81-11.422-4.73a16.087 16.087 0 0 1-4.733-11.42" fill="#ff7bff" fill-rule="evenodd" data-name="Path 11946"/></g><g data-name="Group 11403"><path d="M373.3 156.938v15.918c0 4.397-1.784 8.379-4.663 11.258a15.876 15.876 0 0 1-11.258 4.663H341.46v-15.921c0-4.397 1.78-8.376 4.663-11.255a15.867 15.867 0 0 1 11.258-4.663H373.3Z" fill="#a0d39f" fill-rule="evenodd" data-name="Path 11947"/></g><path d="M207.527 172.904V156.69h32.424v16.214c0 4.474-1.813 8.53-4.748 11.462a16.161 16.161 0 0 1-11.466 4.748 16.16 16.16 0 0 1-11.465-4.748 16.158 16.158 0 0 1-4.745-11.462" fill="#90712e" fill-rule="evenodd" data-name="Path 11948"/><g data-name="Group 11404"><path d="M312.826 188.996a15.9 15.9 0 0 1-11.254-4.641 15.764 15.764 0 0 1-4.663-11.203c0-4.375 1.78-8.335 4.663-11.203a15.894 15.894 0 0 1 11.254-4.64v31.687Z" fill="#024853" fill-rule="evenodd" data-name="Path 11949"/><path d="M328.755 157.463v31.684a15.901 15.901 0 0 1-11.254-4.64 15.765 15.765 0 0 1-4.663-11.203A15.75 15.75 0 0 1 317.5 162.1a15.907 15.907 0 0 1 11.254-4.638" fill="#024853" fill-rule="evenodd" data-name="Path 11950"/></g><path d="M190.784 168.107a16.447 16.447 0 0 0 4.8-11.643h-32.787v16.318c0 4.548 1.836 8.664 4.8 11.643 2.969 2.98 7.066 4.826 11.592 4.826 4.526 0 8.627-1.843 11.591-4.826a16.447 16.447 0 0 0 4.8-11.643h-14.208a16.31 16.31 0 0 0 9.412-4.675Z" fill="#f14c01" fill-rule="evenodd" data-name="Path 11951"/><g data-name="Group 11405"><path d="M252.135 194.443a16.1 16.1 0 0 1 11.42 4.73 16.1 16.1 0 0 1 4.73 11.421c0 4.46-1.81 8.498-4.73 11.422a16.1 16.1 0 0 1-11.42 4.73v-32.303Z" fill="#024853" fill-rule="evenodd" data-name="Path 11952"/><path d="M284.44 194.443v32.306c-4.46 0-8.497-1.806-11.42-4.73a16.1 16.1 0 0 1-4.73-11.42c0-4.46 1.809-8.498 4.73-11.422a16.074 16.074 0 0 1 11.42-4.734" fill="#024853" fill-rule="evenodd" data-name="Path 11953"/></g><g data-name="Group 11406"><path d="M341.46 194.688h15.919c4.396 0 8.378 1.784 11.258 4.663a15.875 15.875 0 0 1 4.663 11.258v15.918h-15.921c-4.397 0-8.376-1.78-11.255-4.663a15.867 15.867 0 0 1-4.663-11.259v-15.917Z" fill="#5c0cc4" fill-rule="evenodd" data-name="Path 11954"/></g><path d="M223.737 194.443h16.214v32.424h-16.214c-4.474 0-8.53-1.813-11.462-4.748a16.16 16.16 0 0 1-4.748-11.465 16.16 16.16 0 0 1 4.748-11.466 16.164 16.164 0 0 1 11.462-4.745" fill="#ff7bff" fill-rule="evenodd" data-name="Path 11955"/><g data-name="Group 11407"><path d="M328.6 210.987a15.9 15.9 0 0 1-4.641 11.254 15.764 15.764 0 0 1-11.203 4.664 15.75 15.75 0 0 1-11.203-4.664 15.896 15.896 0 0 1-4.64-11.254H328.6Z" fill="#a0d39f" fill-rule="evenodd" data-name="Path 11956"/><path d="M297.068 195.058h31.684a15.9 15.9 0 0 1-4.642 11.254 15.764 15.764 0 0 1-11.202 4.663 15.75 15.75 0 0 1-11.203-4.663 15.907 15.907 0 0 1-4.637-11.254" fill="#a0d39f" fill-rule="evenodd" data-name="Path 11957"/></g><path d="M183.94 222.2a16.447 16.447 0 0 0 11.644 4.8v-32.786H179.266a16.455 16.455 0 0 0-11.643 4.8c-2.979 2.968-4.826 7.065-4.826 11.591 0 4.527 1.844 8.627 4.826 11.592a16.446 16.446 0 0 0 11.643 4.8v-14.208a16.31 16.31 0 0 0 4.675 9.412Z" fill="#90712e" fill-rule="evenodd" data-name="Path 11958"/><g data-name="Group 11408"><path d="M252.135 264.499c0-4.46 1.805-8.498 4.73-11.421a16.1 16.1 0 0 1 11.42-4.73c4.46 0 8.498 1.81 11.422 4.73a16.1 16.1 0 0 1 4.73 11.42h-32.302Z" fill="#a0d39f" fill-rule="evenodd" data-name="Path 11959"/><path d="M252.135 232.193h32.305a16.1 16.1 0 0 1-4.73 11.421 16.099 16.099 0 0 1-11.42 4.73c-4.46 0-8.498-1.81-11.422-4.73a16.087 16.087 0 0 1-4.733-11.42" fill="#a0d39f" fill-rule="evenodd" data-name="Path 11960"/></g><g data-name="Group 11409"><path d="M373.3 232.437v15.918c0 4.397-1.784 8.38-4.663 11.259a15.876 15.876 0 0 1-11.258 4.663H341.46v-15.922c0-4.396 1.78-8.375 4.663-11.254a15.867 15.867 0 0 1 11.258-4.664H373.3Z" fill="#f14c01" fill-rule="evenodd" data-name="Path 11961"/></g><path d="M239.95 248.403v16.214h-32.423v-16.214c0-4.474 1.813-8.53 4.748-11.462a16.161 16.161 0 0 1 11.465-4.748c4.479 0 8.531 1.814 11.466 4.748a16.18 16.18 0 0 1 4.745 11.462" fill="#024853" fill-rule="evenodd" data-name="Path 11962"/><g data-name="Group 11410"><path d="M312.837 232.963a15.9 15.9 0 0 1 11.255 4.64 15.764 15.764 0 0 1 4.663 11.204 15.75 15.75 0 0 1-4.663 11.202 15.9 15.9 0 0 1-11.255 4.641v-31.687Z" fill="#5c0cc4" fill-rule="evenodd" data-name="Path 11963"/><path d="M296.912 264.495v-31.684c4.397 0 8.372 1.773 11.255 4.641a15.765 15.765 0 0 1 4.663 11.203 15.75 15.75 0 0 1-4.663 11.203 15.908 15.908 0 0 1-11.255 4.637" fill="#5c0cc4" fill-rule="evenodd" data-name="Path 11964"/></g><path d="M167.597 253.107a16.446 16.446 0 0 0-4.8 11.643h32.787v-16.317c0-4.549-1.836-8.664-4.8-11.643-2.968-2.98-7.065-4.826-11.592-4.826a16.292 16.292 0 0 0-11.59 4.826 16.446 16.446 0 0 0-4.801 11.643h14.208a16.299 16.299 0 0 0-9.412 4.674Z" fill="#ff7bff" fill-rule="evenodd" data-name="Path 11965"/><g data-name="Group 11411"><path d="M252.135 269.943a16.1 16.1 0 0 1 11.42 4.73 16.1 16.1 0 0 1 4.73 11.421c0 4.46-1.81 8.497-4.73 11.42a16.1 16.1 0 0 1-11.42 4.73v-32.301Z" fill="#5c0cc4" fill-rule="evenodd" data-name="Path 11966"/><path d="M284.44 269.943v32.306c-4.46 0-8.497-1.806-11.42-4.73a16.1 16.1 0 0 1-4.73-11.421c0-4.46 1.809-8.498 4.73-11.421a16.073 16.073 0 0 1 11.42-4.734" fill="#5c0cc4" fill-rule="evenodd" data-name="Path 11967"/></g><path d="M223.737 302.367h-16.214v-32.424h16.214c4.474 0 8.53 1.813 11.462 4.748a16.16 16.16 0 0 1 4.748 11.466 16.16 16.16 0 0 1-4.748 11.465 16.174 16.174 0 0 1-11.462 4.745" fill="#a0d39f" fill-rule="evenodd" data-name="Path 11969"/><g data-name="Group 11413"><path d="M297.068 286.479c0-4.397 1.769-8.376 4.637-11.255a15.77 15.77 0 0 1 11.203-4.667 15.76 15.76 0 0 1 11.202 4.66 15.91 15.91 0 0 1 4.645 11.25l-31.687.012Z" fill="#f14c01" fill-rule="evenodd" data-name="Path 11970"/><path d="m328.603 302.396-31.683.012c0-4.397 1.769-8.376 4.637-11.255a15.777 15.777 0 0 1 11.203-4.667c4.374 0 8.334 1.78 11.203 4.66a15.895 15.895 0 0 1 4.64 11.25" fill="#f14c01" fill-rule="evenodd" data-name="Path 11971"/></g><path d="M174.44 274.514a16.447 16.447 0 0 0-11.643-4.8V302.5h16.318c4.548 0 8.664-1.836 11.643-4.8 2.98-2.968 4.826-7.065 4.826-11.591 0-4.526-1.843-8.627-4.826-11.592a16.447 16.447 0 0 0-11.643-4.8v14.208a16.321 16.321 0 0 0-4.674-9.411Z" fill="#024853" fill-rule="evenodd" data-name="Path 11972"/></g></svg>